<?xml version="1.0" standalone="no"?><!DOCTYPE svg PUBLIC "-//W3C//DTD SVG 1.1//EN" "http://www.w3.org/Graphics/SVG/1.1/DTD/svg11.dtd"><svg t="1566285837815" class="icon" viewBox="0 0 1024 1024" version="1.1" xmlns="http://www.w3.org/2000/svg" p-id="1504" width="128" height="128" xmlns:xlink="http://www.w3.org/1999/xlink"><defs><style type="text/css"></style></defs><path d="M226.553174 721.507954A407.446973 407.446973 0 0 1 85.333333 413.896155 420.246355 420.246355 0 0 1 511.979379 0.049491a420.246355 420.246355 0 0 1 426.646045 413.846664 404.033805 404.033805 0 0 1-110.927972 278.173222L500.886582 1024z" fill="#BCBCBC" p-id="1505"></path><path d="M213.327147 412.616217a298.652232 289.692665 0 1 0 597.304464 0 298.652232 289.692665 0 1 0-597.304464 0Z" fill="#FFFFFF" p-id="1506"></path><path d="M704.396745 404.509942H511.979379v-187.72426a20.905656 20.905656 0 0 0-42.664605 0V426.695536a20.47901 20.47901 0 0 0 20.905656 20.479011h213.323023a20.47901 20.47901 0 1 0 0-40.531375" fill="#BCBCBC" p-id="1507"></path></svg>